<?xml version="1.0" standalone="no"?>
<!DOCTYPE svg PUBLIC "-//W3C//DTD SVG 20010904//EN"
 "http://www.w3.org/TR/2001/REC-SVG-20010904/DTD/svg10.dtd">
<svg version="1.0" xmlns="http://www.w3.org/2000/svg"
 width="601.000000pt" height="601.000000pt" viewBox="0 0 601.000000 601.000000"
 preserveAspectRatio="xMidYMid meet">
<metadata>
Created by potrace 1.14, written by Peter Selinger 2001-2017
</metadata>
<g transform="translate(0.000000,601.000000) scale(0.100000,-0.100000)"
fill="#000000" stroke="none">
<path d="M1166 5613 c-4 -4 -47 -6 -97 -5 l-90 2 4 -1818 c2 -999 6 -1828 9
-1842 3 -14 8 -43 12 -65 4 -22 12 -61 17 -86 6 -26 12 -53 13 -60 9 -48 61
-209 82 -257 74 -164 165 -331 186 -340 5 -2 8 -8 8 -13 0 -9 40 -65 75 -105
6 -6 24 -29 41 -50 67 -83 187 -196 310 -294 74 -59 237 -157 349 -210 187
-87 372 -142 595 -176 59 -9 429 -9 505 0 80 9 87 10 220 40 94 22 91 21 163
45 145 49 272 106 376 169 37 23 70 42 72 42 5 0 138 96 173 125 146 120 273
256 379 408 34 48 62 91 62 96 0 5 6 16 13 23 41 44 169 342 192 448 1 8 8 33
14 55 9 37 13 58 25 133 3 15 8 47 12 72 10 56 11 363 2 450 -4 36 -11 79 -17
97 -5 17 -7 33 -5 36 3 2 0 15 -5 29 -5 14 -12 38 -14 54 -23 126 -160 456
-214 517 -9 9 -12 17 -8 17 5 0 -1 10 -12 23 -11 12 -26 32 -32 44 -38 75
-261 322 -356 395 -16 13 -37 30 -46 39 -24 24 -244 169 -256 169 -6 0 -13 3
-15 8 -7 15 -194 101 -293 133 -33 11 -68 24 -77 30 -10 5 -27 9 -37 9 -11 0
-31 5 -45 11 -20 9 -23 16 -16 34 30 78 35 388 8 514 -17 82 -49 192 -67 236
-23 54 -57 122 -70 138 -8 9 -11 17 -7 17 6 0 -68 114 -84 130 -3 3 -17 21
-31 40 -66 89 -236 238 -339 299 -38 22 -133 69 -194 96 -55 24 -178 60 -241
71 -16 2 -43 7 -60 10 -31 6 -291 16 -360 14 -186 -5 -485 -3 -485 3 0 5 -5 5
-10 2 -13 -8 -305 -9 -318 -1 -5 3 -12 2 -16 -1z"/>
<path d="M4247 5574 c-2 -3 -15 -7 -28 -9 -13 -3 -35 -10 -49 -16 -14 -7 -40
-19 -59 -28 -59 -27 -155 -130 -189 -201 -40 -83 -46 -107 -47 -205 -3 -158
63 -291 190 -384 259 -189 623 -72 725 234 18 53 20 68 20 150 0 82 -2 93 -29
162 -29 74 -64 126 -117 175 -96 89 -191 126 -323 126 -49 0 -91 -1 -94 -4z"/>
</g>
</svg>
